<?xml version="1.0" encoding="UTF-8"?><svg id="Capa_2" xmlns="http://www.w3.org/2000/svg" viewBox="0 0 60 60"><defs><style>.cls-1{fill:#ffc200;stroke-width:0px;}</style></defs><g id="Capa_1-2"><path class="cls-1" d="M30,0C13.46,0,0,13.46,0,30s13.46,30,30,30,30-13.46,30-30S46.54,0,30,0ZM30,56.84c-14.8,0-26.84-12.04-26.84-26.84S15.2,3.16,30,3.16s26.84,12.04,26.84,26.84-12.04,26.84-26.84,26.84Z"/><path class="cls-1" d="M30,33.53c.87,0,1.58-.71,1.58-1.58V14.82c0-.87-.71-1.58-1.58-1.58s-1.58.71-1.58,1.58v17.13c0,.87.71,1.58,1.58,1.58Z"/><path class="cls-1" d="M30,41.24c-1.09,0-1.97.88-1.97,1.97s.88,1.97,1.97,1.97,1.97-.88,1.97-1.97-.88-1.97-1.97-1.97Z"/></g></svg>