<?xml version="1.0" encoding="UTF-8"?>
<svg id="Capa_2" xmlns="http://www.w3.org/2000/svg" viewBox="0 0 1125 2436"><defs><style>.cls-1{stroke:#1c1c1c;stroke-width:.16px;}.cls-1,.cls-2,.cls-3,.cls-4,.cls-5,.cls-6,.cls-7,.cls-8,.cls-9,.cls-10,.cls-11,.cls-12,.cls-13,.cls-14,.cls-15,.cls-16,.cls-17,.cls-18,.cls-19,.cls-20,.cls-21,.cls-22,.cls-23,.cls-24,.cls-25,.cls-26,.cls-27,.cls-28,.cls-29,.cls-30,.cls-31,.cls-32,.cls-33,.cls-34,.cls-35,.cls-36,.cls-37,.cls-38,.cls-39,.cls-40,.cls-41,.cls-42,.cls-43,.cls-44,.cls-45,.cls-46{fill:none;}.cls-1,.cls-2,.cls-3,.cls-4,.cls-5,.cls-7,.cls-8,.cls-9,.cls-10,.cls-11,.cls-12,.cls-13,.cls-14,.cls-15,.cls-16,.cls-17,.cls-18,.cls-19,.cls-20,.cls-21,.cls-22,.cls-23,.cls-24,.cls-25,.cls-26,.cls-27,.cls-28,.cls-29,.cls-30,.cls-31,.cls-32,.cls-33,.cls-34,.cls-35,.cls-36,.cls-37,.cls-38,.cls-39,.cls-40,.cls-41,.cls-42,.cls-43,.cls-44,.cls-45,.cls-46{stroke-miterlimit:10;}.cls-2{stroke:#101010;stroke-width:.15px;}.cls-3{stroke:#050505;stroke-width:.14px;}.cls-4{stroke:#272727;stroke-width:.17px;}.cls-5{stroke-width:.17px;}.cls-5,.cls-10{stroke:#292929;}.cls-47{clip-path:url(#clippath);}.cls-6,.cls-48,.cls-49,.cls-50,.cls-51,.cls-52,.cls-53,.cls-54,.cls-55{stroke-width:0px;}.cls-7{stroke:#0a0a0a;stroke-width:.15px;}.cls-8{stroke:#0b0b0b;stroke-width:.15px;}.cls-9{stroke:#0f0f0f;stroke-width:.15px;}.cls-10{stroke-width:.24px;}.cls-11{stroke:#323232;stroke-width:.5px;}.cls-12{stroke:#1d1d1d;stroke-width:.16px;}.cls-48{filter:url(#drop-shadow-2);}.cls-48,.cls-49,.cls-50,.cls-51,.cls-54{fill:#f1f1f1;}.cls-49{filter:url(#drop-shadow-1);}.cls-50{filter:url(#drop-shadow-3);}.cls-51{filter:url(#drop-shadow-4);}.cls-13{stroke:#131313;stroke-width:.15px;}.cls-14{stroke:#040404;stroke-width:.14px;}.cls-15{stroke:#171717;stroke-width:.15px;}.cls-16{stroke:#070707;stroke-width:.14px;}.cls-17{stroke:#222;stroke-width:.16px;}.cls-18{stroke:#0c0c0c;stroke-width:.15px;}.cls-52{fill:#323232;}.cls-56{clip-path:url(#clippath-1);}.cls-19{stroke:#030303;stroke-width:.14px;}.cls-20{stroke:#1b1b1b;stroke-width:.16px;}.cls-21{stroke:#282828;stroke-width:.17px;}.cls-22{stroke:#1e1e1e;stroke-width:.16px;}.cls-23{stroke:#161616;stroke-width:.15px;}.cls-24{stroke:#020202;stroke-width:.14px;}.cls-25{stroke:#080808;stroke-width:.14px;}.cls-26{stroke-width:.15px;}.cls-26,.cls-27{stroke:#151515;}.cls-27{stroke-width:.15px;}.cls-53,.cls-55{fill:#3587f2;}.cls-28{stroke:#0d0d0d;stroke-width:.15px;}.cls-29{stroke:#1a1a1a;stroke-width:.16px;}.cls-30{stroke:#010101;stroke-width:.14px;}.cls-31{stroke:#202020;stroke-width:.16px;}.cls-32{stroke:#1f1f1f;stroke-width:.16px;}.cls-57,.cls-55{opacity:.6;}.cls-33{stroke:#060606;stroke-width:.14px;}.cls-34{stroke:#212121;stroke-width:.16px;}.cls-35{stroke:#111;stroke-width:.15px;}.cls-36{stroke:#252525;stroke-width:.16px;}.cls-37{stroke:#000;stroke-width:.14px;}.cls-38{stroke:#191919;stroke-width:.16px;}.cls-39{stroke:#0e0e0e;stroke-width:.15px;}.cls-40{stroke:#181818;stroke-width:.16px;}.cls-41{stroke:#141414;stroke-width:.15px;}.cls-42{stroke:#121212;stroke-width:.15px;}.cls-43{stroke:#242424;stroke-width:.16px;}.cls-44{stroke:#232323;stroke-width:.16px;}.cls-45{stroke:#262626;stroke-width:.16px;}.cls-46{stroke:#090909;stroke-width:.14px;}</style><clipPath id="clippath"><rect class="cls-6" width="1125" height="2436"/></clipPath><clipPath id="clippath-1"><rect class="cls-6" x="-655.5" y="551.72" width="2436" height="1332.57" transform="translate(1780.5 655.5) rotate(90)"/></clipPath><filter id="drop-shadow-1" filterUnits="userSpaceOnUse"><feOffset dx="0" dy="0"/><feGaussianBlur result="blur" stdDeviation="11.37"/><feFlood flood-color="#232323" flood-opacity=".2"/><feComposite in2="blur" operator="in"/><feComposite in="SourceGraphic"/></filter><filter id="drop-shadow-2" filterUnits="userSpaceOnUse"><feOffset dx="0" dy="0"/><feGaussianBlur result="blur-2" stdDeviation="10"/><feFlood flood-color="#232323" flood-opacity=".3"/><feComposite in2="blur-2" operator="in"/><feComposite in="SourceGraphic"/></filter><filter id="drop-shadow-3" filterUnits="userSpaceOnUse"><feOffset dx="0" dy="0"/><feGaussianBlur result="blur-3" stdDeviation="8.51"/><feFlood flood-color="#232323" flood-opacity=".2"/><feComposite in2="blur-3" operator="in"/><feComposite in="SourceGraphic"/></filter><filter id="drop-shadow-4" filterUnits="userSpaceOnUse"><feOffset dx="0" dy="0"/><feGaussianBlur result="blur-4" stdDeviation="10"/><feFlood flood-color="#232323" flood-opacity=".3"/><feComposite in2="blur-4" operator="in"/><feComposite in="SourceGraphic"/></filter></defs><g id="Capa_1-2"><g class="cls-47"><g class="cls-56"><rect class="cls-54" x="-682.25" y="578.46" width="2554.1" height="1397.17" transform="translate(1871.85 682.25) rotate(90)"/><path class="cls-49" d="M1438.23,1499.35s-359.56-472.56-278.74-41.9c80.82,430.67,54.15,487.81-57.51,492.5-120.86,5.08-113.13,82.67-16.99,254.53,96.14,171.86-180.08,23.66-128.52,404.87l595.08-21.9-113.33-1088.11Z"/><path class="cls-55" d="M808.72-411.38s130.54,2.2,17.48,272.88c-158.07,378.44,399.44,459.11,190.81,783.66-208.64,324.55,322.68,318.09,123.45,566.11-199.23,248.02,488.4,172.83,342.04,429.18L1772.06-495.14l-963.35,83.77Z"/><path class="cls-48" d="M1411.66,1495.28s-455.61-416.05-198.75-483.32c256.86-67.28-235.45-215.44-94.79-534.07,140.65-318.61-329.13-512.96-79.43-573.73,249.7-60.77-264.15-171.18-41.84-454.52l645.03,114.19-230.23,1931.45Z"/><path class="cls-5" d="M980.67-316.93s574.66,25.62,277.96,418.91c-296.7,393.28,238.12,251.47,4.57,487.4-233.55,235.93,317.26,380.66,152.61,951.26"/><path class="cls-21" d="M976.07-316.64s567.1,30.17,272.68,421.27c-294.42,391.1,240.36,256.2,9,496.14-231.37,239.94,318.75,383.23,158.01,940.24"/><path class="cls-4" d="M971.47-316.35s559.55,34.73,267.41,423.64c-292.14,388.91,242.6,260.94,13.42,504.88-229.18,243.95,320.23,385.8,163.42,929.23"/><path class="cls-45" d="M966.87-316.07s552,39.28,262.13,426.01c-289.86,386.73,244.84,265.67,17.84,513.63-227,247.96,321.72,388.37,168.83,918.21"/><path class="cls-36" d="M962.27-315.78s544.44,43.83,256.86,428.37c-287.59,384.54,247.08,270.4,22.27,522.37-224.82,251.97,323.21,390.94,174.24,907.19"/><path class="cls-43" d="M957.67-315.5s536.89,48.38,251.59,430.74c-285.31,382.36,249.32,275.14,26.69,531.12-222.64,255.98,324.7,393.51,179.64,896.18"/><path class="cls-44" d="M953.07-315.21s529.34,52.94,246.31,433.11c-283.03,380.17,251.56,279.87,31.11,539.86-220.45,259.99,326.18,396.08,185.05,885.16"/><path class="cls-17" d="M948.47-314.93s521.79,57.49,241.04,435.48c-280.75,377.99,253.8,284.6,35.53,548.6-218.27,264,327.67,398.65,190.46,874.14"/><path class="cls-34" d="M943.86-314.64s514.23,62.04,235.76,437.84c-278.47,375.8,256.04,289.33,39.96,557.35-216.09,268.01,329.16,401.22,195.87,863.13"/><path class="cls-31" d="M939.26-314.35s506.68,66.59,230.49,440.21c-276.19,373.61,258.28,294.07,44.38,566.09-213.91,272.02,330.64,403.79,201.27,852.11"/><path class="cls-32" d="M934.66-314.07s499.13,71.15,225.21,442.58c-273.91,371.43,260.52,298.8,48.8,574.84-211.72,276.03,332.13,406.36,206.68,841.1"/><path class="cls-22" d="M930.06-313.78s491.57,75.7,219.94,444.94c-271.63,369.24,262.76,303.53,53.22,583.58-209.54,280.05,333.62,408.93,212.09,830.08"/><path class="cls-12" d="M925.46-313.5s484.02,80.25,214.66,447.31c-269.36,367.06,265.01,308.27,57.65,592.32-207.36,284.06,335.11,411.49,217.5,819.06"/><path class="cls-1" d="M920.86-313.21s476.47,84.81,209.39,449.68c-267.08,364.87,267.25,313,62.07,601.07-205.18,288.07,336.59,414.06,222.9,808.05"/><path class="cls-20" d="M916.26-312.93s468.92,89.36,204.12,452.05c-264.8,362.69,269.49,317.73,66.49,609.81-202.99,292.08,338.08,416.63,228.31,797.03"/><path class="cls-29" d="M911.65-312.64s461.36,93.91,198.84,454.41c-262.52,360.5,271.73,322.47,70.92,618.55-200.81,296.09,339.57,419.2,233.72,786.01"/><path class="cls-38" d="M907.05-312.35s453.81,98.46,193.57,456.78c-260.24,358.32,273.97,327.2,75.34,627.3-198.63,300.1,341.06,421.77,239.13,775"/><path class="cls-40" d="M902.45-312.07s446.26,103.02,188.29,459.15c-257.96,356.13,276.21,331.93,79.76,636.04-196.45,304.11,342.54,424.34,244.53,763.98"/><path class="cls-15" d="M897.85-311.78s438.7,107.57,183.02,461.51c-255.68,353.95,278.45,336.66,84.18,644.79-194.26,308.12,344.03,426.91,249.94,752.96"/><path class="cls-23" d="M893.25-311.5s431.15,112.12,177.74,463.88c-253.41,351.76,280.69,341.4,88.61,653.53-192.08,312.13,345.52,429.48,255.35,741.95"/><path class="cls-27" d="M888.65-311.21s423.6,116.67,172.47,466.25c-251.13,349.57,282.93,346.13,93.03,662.27-189.9,316.14,347,432.05,260.76,730.93"/><path class="cls-26" d="M884.05-310.93s416.04,121.23,167.2,468.62c-248.85,347.39,285.17,350.86,97.45,671.02-187.72,320.15,348.49,434.62,266.17,719.92"/><path class="cls-41" d="M879.45-310.64s408.49,125.78,161.92,470.98c-246.57,345.2,287.41,355.6,101.87,679.76-185.53,324.17,349.98,437.19,271.57,708.9"/><path class="cls-13" d="M874.84-310.35s400.94,130.33,156.65,473.35c-244.29,343.02,289.65,360.33,106.3,688.51-183.35,328.18,351.47,439.76,276.98,697.88"/><path class="cls-42" d="M870.24-310.07s393.39,134.88,151.37,475.72c-242.01,340.83,291.89,365.06,110.72,697.25-181.17,332.19,352.95,442.33,282.39,686.87"/><path class="cls-35" d="M865.64-309.78s385.83,139.44,146.1,478.08c-239.73,338.65,294.13,369.8,115.14,705.99-178.99,336.2,354.44,444.89,287.8,675.85"/><path class="cls-2" d="M861.04-309.5s378.28,143.99,140.82,480.45c-237.46,336.46,296.37,374.53,119.57,714.74-176.8,340.21,355.93,447.46,293.2,664.83"/><path class="cls-9" d="M856.44-309.21s370.73,148.54,135.55,482.82c-235.18,334.28,298.61,379.26,123.99,723.48-174.62,344.22,357.42,450.03,298.61,653.82"/><path class="cls-39" d="M851.84-308.93s363.17,153.1,130.28,485.18c-232.9,332.09,300.85,384,128.41,732.23-172.44,348.23,358.9,452.6,304.02,642.8"/><path class="cls-28" d="M847.24-308.64s355.62,157.65,125,487.55c-230.62,329.9,303.09,388.73,132.83,740.97-170.26,352.24,360.39,455.17,309.43,631.78"/><path class="cls-18" d="M842.63-308.35s348.07,162.2,119.73,489.92c-228.34,327.72,305.33,393.46,137.26,749.71-168.07,356.25,361.88,457.74,314.83,620.77"/><path class="cls-8" d="M838.03-308.07s340.52,166.75,114.45,492.29c-226.06,325.53,307.57,398.19,141.68,758.46-165.89,360.26,363.36,460.31,320.24,609.75"/><path class="cls-7" d="M833.43-307.78s332.96,171.31,109.18,494.65c-223.78,323.35,309.81,402.93,146.1,767.2-163.71,364.27,364.85,462.88,325.65,598.74"/><path class="cls-46" d="M828.83-307.5s325.41,175.86,103.9,497.02c-221.51,321.16,312.05,407.66,150.52,775.94-161.53,368.28,366.34,465.45,331.06,587.72"/><path class="cls-25" d="M824.23-307.21s317.86,180.41,98.63,499.39c-219.23,318.98,314.29,412.39,154.95,784.69-159.34,372.3,367.83,468.02,336.46,576.7"/><path class="cls-16" d="M819.63-306.93s310.3,184.96,93.36,501.75c-216.95,316.79,316.53,417.13,159.37,793.43-157.16,376.31,369.31,470.59,341.87,565.69"/><path class="cls-33" d="M815.03-306.64s302.75,189.52,88.08,504.12c-214.67,314.61,318.77,421.86,163.79,802.18-154.98,380.32,370.8,473.16,347.28,554.67"/><path class="cls-3" d="M810.42-306.36s295.2,194.07,82.81,506.49c-212.39,312.42,321.01,426.59,168.22,810.92-152.8,384.33,372.29,475.73,352.69,543.65"/><path class="cls-14" d="M805.82-306.07s287.64,198.62,77.53,508.86c-210.11,310.23,323.25,431.33,172.64,819.66-150.61,388.34,373.78,478.29,358.09,532.64"/><path class="cls-19" d="M801.22-305.78s280.09,203.17,72.26,511.22c-207.83,308.05,325.49,436.06,177.06,828.41-148.43,392.35,375.26,480.86,363.5,521.62"/><path class="cls-24" d="M796.62-305.5s272.54,207.73,66.98,513.59c-205.55,305.86,327.73,440.79,181.48,837.15-146.25,396.36,376.75,483.43,368.91,510.6"/><path class="cls-30" d="M792.02-305.21s264.99,212.28,61.71,515.96c-203.28,303.68,329.97,445.52,185.91,845.9-144.07,400.37,378.24,486,374.32,499.59"/><path class="cls-37" d="M787.42-304.93s257.43,216.83,56.44,518.32c-201,301.49,332.21,450.26,190.33,854.64-141.88,404.38,379.72,488.57,379.72,488.57"/><path class="cls-50" d="M-27.75-233.09S346.22-67.28,161.87,118.83c-184.35,186.11,160.02,272.66-55.15,377.44-196.1,95.49-57.26,286.04-361.19,202.18-303.93-83.86-235.97,12.58-248.04-548.73-12.06-561.31,109.48-384.49,109.48-384.49l365.29,1.68Z"/><path class="cls-55" d="M-195.85,475.75S8.01,658.89-59.96,803.43c-94.92,201.87,315.21,355,182.41,678.6-132.79,323.58,341.53,500.77,93.43,570.59-248.1,69.81,268.22,161.5,52.94,452.8l-647.54-90.7L-195.85,475.75Z"/><path class="cls-51" d="M255.75,2748.54s-394.77-194.66-110.13-482.04c284.64-287.37-324.52-234.48-123.92-566.46,200.6-331.99-330.32-306.22-137.24-561.37,193.07-255.15-492.41-155-352.39-416.56l-237.19,2145.16,960.87-118.74Z"/><path class="cls-10" d="M-289.88,1048.96s354.59-185.86,333.46,204.96c-21.13,390.81,498.73,123.81,256.03,620.66-242.7,496.85,216.31,239.26-25.88,599.67"/><path class="cls-10" d="M-292.58,1052.37S63.37,871.04,39.84,1259.83c-23.54,388.79,494.2,128.13,249.46,617.74-245.23,489.79,220.05,241.35-22.81,598.07"/><path class="cls-10" d="M-295.29,1055.77S62.04,878.98,36.1,1265.76c-25.94,386.77,489.68,132.45,242.89,614.82-247.76,482.73,223.8,243.45-19.74,596.47"/><path class="cls-10" d="M-297.99,1059.18S60.7,886.92,32.35,1271.68c-28.34,384.75,485.16,136.78,236.32,611.9-250.29,475.66,227.55,245.54-16.67,594.87"/><path class="cls-10" d="M-300.7,1062.59S59.36,894.86,28.61,1277.6c-30.75,382.73,480.63,141.1,229.75,608.99-252.82,468.6,231.29,247.64-13.6,593.27"/><path class="cls-10" d="M-303.4,1066S58.03,902.81,24.87,1283.52c-33.15,380.71,476.11,145.42,223.18,606.07-255.35,461.53,235.04,249.73-10.53,591.67"/><path class="cls-10" d="M-306.11,1069.41S56.69,910.75,21.13,1289.44c-35.56,378.69,471.59,149.75,216.61,603.15-257.88,454.47,238.79,251.82-7.46,590.07"/><path class="cls-10" d="M-308.81,1072.81S55.35,918.69,17.39,1295.36c-37.96,376.67,468.06,154.65,210.04,600.23-259.41,447.99,242.53,253.92-4.39,588.47"/><path class="cls-10" d="M-311.52,1076.22S54.01,926.63,13.65,1301.28c-40.37,374.65,463.66,159.06,203.47,597.31-261.82,441.01,246.28,256.01-1.32,586.87"/><path class="cls-10" d="M-314.22,1079.63S52.68,934.57,9.91,1307.2c-42.77,372.63,459.25,163.47,196.9,594.39-264.23,434.03,250.03,258.11,1.75,585.27"/><path class="cls-10" d="M-316.93,1083.04S51.34,942.51,6.17,1313.12c-45.17,370.61,454.83,167.87,190.34,591.47-266.66,427.06,253.77,260.2,4.82,583.67"/><path class="cls-10" d="M-319.63,1086.45S50,950.45,2.42,1319.04c-47.58,368.59,450.41,172.28,183.77,588.55-269.08,420.08,257.52,262.29,7.89,582.07"/><path class="cls-10" d="M-322.34,1089.85S48.67,958.39-1.32,1324.96c-49.98,366.57,445.98,176.69,177.2,585.64-271.52,413.1,261.27,264.39,10.96,580.47"/><path class="cls-10" d="M-325.04,1093.26S47.33,966.33-5.06,1330.88c-52.39,364.55,441.54,181.1,170.63,582.72-273.96,406.13,265.02,266.48,14.03,578.87"/><path class="cls-10" d="M-327.75,1096.67S45.99,974.28-8.8,1336.8c-54.79,362.53,437.1,185.51,164.06,579.8-276.41,399.15,268.76,268.58,17.1,577.27"/><path class="cls-10" d="M-330.45,1100.08S44.66,982.22-12.54,1342.73c-57.2,360.51,432.65,189.91,157.49,576.88-278.86,392.17,272.51,270.67,20.17,575.67"/><path class="cls-10" d="M-333.16,1103.49S43.32,990.16-16.28,1348.65c-59.6,358.49,428.19,194.32,150.92,573.96-281.33,385.19,276.26,272.77,23.24,574.06"/><path class="cls-10" d="M-335.86,1106.89S41.98,998.1-20.02,1354.57c-62,356.47,423.73,198.72,144.35,571.04-283.8,378.21,280,274.86,26.31,572.46"/><path class="cls-10" d="M-338.57,1110.3S40.65,1006.04-23.76,1360.49c-64.41,354.45,419.25,203.12,137.78,568.12-286.27,371.23,283.75,276.95,29.38,570.86"/><path class="cls-10" d="M-341.27,1113.71S39.31,1013.98-27.51,1366.41c-66.81,352.43,414.77,207.52,131.21,565.2-288.76,364.24,287.5,279.05,32.45,569.26"/><path class="cls-10" d="M-343.98,1117.12S37.97,1021.92-31.25,1372.33c-69.22,350.41,410.28,211.92,124.64,562.29-291.25,357.25,291.24,281.14,35.52,567.66"/><path class="cls-10" d="M-346.68,1120.53s383.32-90.66,311.69,257.72c-71.62,348.39,405.79,216.31,118.07,559.37-293.75,350.26,294.99,283.24,38.59,566.06"/><path class="cls-10" d="M-349.39,1123.93s384.68-86.13,310.66,260.24c-74.03,346.37,401.28,220.7,111.51,556.45-296.26,343.27,298.74,285.33,41.66,564.46"/><path class="cls-10" d="M-352.09,1127.34s386.05-81.6,309.62,262.75c-76.43,344.35,396.77,225.08,104.94,553.53-298.78,336.27,302.48,287.42,44.73,562.86"/><path class="cls-10" d="M-354.8,1130.75s387.42-77.06,308.59,265.26c-78.83,342.33,392.25,229.46,98.37,550.61-301.31,329.26,306.23,289.52,47.8,561.26"/><path class="cls-10" d="M-357.5,1134.16S31.29,1061.63-49.95,1401.93c-81.24,340.31,387.72,233.84,91.8,547.69-303.84,322.26,309.98,291.61,50.87,559.66"/><path class="cls-10" d="M-360.21,1137.57S29.95,1069.57-53.69,1407.85c-83.64,338.28,383.18,238.21,85.23,544.77-306.38,315.24,313.72,293.71,53.94,558.06"/><path class="cls-10" d="M-362.91,1140.98s391.52-63.46,305.48,272.8c-86.05,336.26,378.64,242.57,78.66,541.85-308.94,308.22,317.47,295.8,57.01,556.46"/><path class="cls-10" d="M-365.62,1144.38s392.89-58.93,304.44,275.31c-88.45,334.24,374.08,246.93,72.09,538.94-311.49,301.2,321.22,297.89,60.08,554.86"/><path class="cls-10" d="M-368.32,1147.79s394.26-54.4,303.4,277.83c-90.86,332.22,369.52,251.28,65.52,536.02-314.06,294.16,324.97,299.99,63.15,553.26"/><path class="cls-10" d="M-371.03,1151.2s395.63-49.87,302.37,280.34c-93.26,330.2,364.95,255.62,58.95,533.1-316.63,287.12,328.71,302.08,66.22,551.66"/><path class="cls-10" d="M-373.73,1154.61s397-45.33,301.33,282.85c-95.66,328.18,360.38,259.95,52.38,530.18-319.22,280.07,332.46,304.18,69.29,550.06"/><path class="cls-10" d="M-376.44,1158.02s398.37-40.8,300.3,285.36c-98.07,326.16,355.79,264.28,45.81,527.26-321.81,273.01,336.21,306.27,72.36,548.45"/><path class="cls-10" d="M-379.14,1161.42s399.73-36.27,299.26,287.88c-100.47,324.14,351.2,268.6,39.24,524.34-324.4,265.94,339.95,308.37,75.43,546.85"/><path class="cls-10" d="M-381.85,1164.83s401.1-31.73,298.22,290.39c-102.88,322.12,346.61,272.9,32.67,521.42-327,258.87,343.7,310.46,78.5,545.25"/><path class="cls-10" d="M-384.55,1168.24s402.47-27.2,297.19,292.9c-105.28,320.1,342.01,277.2,26.11,518.5-329.61,251.78,347.45,312.55,81.57,543.65"/><path class="cls-10" d="M-387.26,1171.65s403.84-22.67,296.15,295.41c-107.69,318.08,337.4,281.49,19.54,515.59-332.23,244.68,351.19,314.65,84.64,542.05"/><path class="cls-10" d="M-389.96,1175.06s405.21-18.13,295.11,297.93c-110.09,316.06,332.78,285.76,12.97,512.67-334.85,237.57,354.94,316.74,87.71,540.45"/><path class="cls-10" d="M-392.67,1178.46s406.57-13.6,294.08,300.44c-112.5,314.04,328.17,290.03,6.4,509.75-337.48,230.44,358.69,318.84,90.78,538.85"/><path class="cls-10" d="M-395.37,1181.87s407.94-9.07,293.04,302.95c-114.9,312.02,323.55,294.28-.17,506.83-340.11,223.31,362.43,320.93,93.85,537.25"/><path class="cls-10" d="M-398.08,1185.28s409.31-4.53,292.01,305.47c-117.3,310,318.92,298.52-6.74,503.91-342.74,216.16,366.18,323.02,96.92,535.65"/><path class="cls-10" d="M-400.78,1188.69s410.68,0,290.97,307.98c-119.71,307.98,314.29,302.75-13.31,500.99-345.38,209,369.93,325.12,99.99,534.05"/><path class="cls-10" d="M-403.49,1192.1s412.05,4.53,289.93,310.49c-122.11,305.96,309.67,306.97-19.88,498.07-348.02,201.82,373.67,327.21,103.06,532.45"/><path class="cls-10" d="M-406.19,1195.5s413.41,9.06,288.9,313c-124.52,303.94,305.03,311.17-26.45,495.15-350.66,194.63,377.42,329.31,106.13,530.85"/><path class="cls-10" d="M-408.9,1198.91s414.78,13.6,287.86,315.52c-126.92,301.92,300.4,315.36-33.02,492.24-353.3,187.42,381.17,331.4,109.2,529.25"/><path class="cls-10" d="M-411.6,1202.32s416.15,18.13,286.82,318.03c-129.33,299.9,295.77,319.53-39.59,489.32-355.94,180.2,384.92,333.49,112.27,527.65"/><path class="cls-10" d="M-414.31,1205.73s417.52,22.66,285.79,320.54c-131.73,297.88,291.14,323.69-46.16,486.4-358.58,172.97,388.66,335.59,115.34,526.05"/><ellipse class="cls-52" cx="1114.05" cy="11.51" rx="5.34" ry="6.51"/><ellipse class="cls-52" cx="1114.05" cy="61.93" rx="5.34" ry="6.51"/><ellipse class="cls-52" cx="1114.05" cy="112.36" rx="5.34" ry="6.51"/><ellipse class="cls-52" cx="197.23" cy="2325.84" rx="5.34" ry="6.51"/><ellipse class="cls-52" cx="197.23" cy="2376.26" rx="5.34" ry="6.51"/><ellipse class="cls-52" cx="197.23" cy="2426.69" rx="5.34" ry="6.51"/><path class="cls-52" d="M935.49,780.51c0,3.6-2.39,6.51-5.34,6.51s-5.34-2.92-5.34-6.51,2.39-6.51,5.34-6.51,5.34,2.92,5.34,6.51Z"/><ellipse class="cls-52" cx="930.14" cy="830.94" rx="5.34" ry="6.51"/><ellipse class="cls-52" cx="930.14" cy="881.36" rx="5.34" ry="6.51"/><ellipse class="cls-52" cx="930.14" cy="931.78" rx="5.34" ry="6.51"/><g class="cls-57"><ellipse class="cls-53" cx="834.78" cy="2351.05" rx="5.34" ry="6.51"/><ellipse class="cls-53" cx="793.41" cy="2351.05" rx="5.34" ry="6.51"/><ellipse class="cls-53" cx="752.04" cy="2351.05" rx="5.34" ry="6.51"/><ellipse class="cls-53" cx="710.66" cy="2351.05" rx="5.34" ry="6.51"/></g><line class="cls-11" x1="-28.83" y1="465.63" x2="8.04" y2="465.63"/><line class="cls-11" x1="47.98" y1="2064.19" x2="47.98" y2="2109.12"/><line class="cls-11" x1="29.55" y1="2086.66" x2="66.42" y2="2086.66"/><line class="cls-11" x1="1116.3" y1="465.63" x2="1153.17" y2="465.63"/><line class="cls-11" x1="457.08" y1="2242.56" x2="457.08" y2="2287.49"/><line class="cls-11" x1="438.65" y1="2265.03" x2="475.51" y2="2265.03"/><line class="cls-11" x1="746.69" y1="89.89" x2="746.69" y2="134.82"/><line class="cls-11" x1="728.26" y1="112.36" x2="765.13" y2="112.36"/><polygon class="cls-52" points="406.48 2436 382.49 2419.12 382.49 2452.88 406.48 2436"/><polygon class="cls-52" points="1010.1 -19.49 996.25 9.74 1023.94 9.74 1010.1 -19.49"/><polygon class="cls-52" points="4.04 2262.05 17.89 2232.82 -9.8 2232.82 4.04 2262.05"/><polygon class="cls-52" points="1059.32 2137.8 1045.47 2167.03 1073.17 2167.03 1059.32 2137.8"/></g></g></g></svg>