<?xml version="1.0" encoding="UTF-8"?><svg id="Capa_2" xmlns="http://www.w3.org/2000/svg" viewBox="0 0 19.35 20"><defs><style>.cls-1{fill:#3587f2;stroke-width:0px;}</style></defs><g id="Capa_1-2"><path class="cls-1" d="M15.94,6.56h-4.23v-3.15c0-1.88-1.53-3.41-3.41-3.41H3.41C1.53,0,0,1.53,0,3.41v4.67c0,1.74,1.34,3.21,3.05,3.39v1.68c0,.12.07.22.17.27.04.02.08.03.13.03.07,0,.14-.02.19-.07l2.28-1.89h1.82v3.15c0,1.88,1.53,3.41,3.41,3.41h2.49l2.28,1.89c.05.04.12.07.19.07.04,0,.09,0,.12-.03.1-.05.17-.15.17-.27v-1.68c1.71-.18,3.05-1.64,3.05-3.39v-4.67c0-1.88-1.53-3.41-3.41-3.41ZM5.72,10.89s-.06,0-.09,0c-.05.01-.09.04-.13.07l-1.86,1.55v-1.33c0-.16-.13-.29-.29-.3-1.52-.03-2.76-1.29-2.76-2.81V3.41C.59,1.86,1.86.59,3.41.59h4.89c1.55,0,2.81,1.27,2.81,2.81v4.67c0,1.55-1.26,2.81-2.81,2.81h-2.58ZM18.76,14.63c0,1.52-1.24,2.78-2.76,2.81-.16,0-.29.13-.29.3v1.33l-1.87-1.55s-.07-.05-.11-.06c-.04-.01-.07-.02-.11-.01h-2.58c-1.55,0-2.81-1.26-2.81-2.81v-3.15h.07c1.88,0,3.41-1.53,3.41-3.41v-.93h4.23c1.55,0,2.81,1.26,2.81,2.81v4.67Z"/><path class="cls-1" d="M8.58,4.38l-3.14,3.13c-.06.06-.13.09-.21.09s-.15-.03-.21-.09l-1.88-1.88c-.12-.12-.12-.3,0-.42.12-.12.31-.12.42,0l1.67,1.67,2.93-2.93c.12-.12.31-.12.42,0,.12.12.12.31,0,.42Z"/><path class="cls-1" d="M15.5,13.88c.12.12.12.3,0,.42-.06.06-.14.09-.21.09s-.15-.03-.21-.09l-1.58-1.58-1.58,1.58c-.06.06-.13.09-.21.09s-.15-.03-.21-.09c-.12-.12-.12-.3,0-.42l1.58-1.58-1.58-1.58c-.12-.12-.12-.31,0-.42.12-.12.31-.12.42,0l1.58,1.58,1.58-1.58c.12-.12.3-.12.42,0,.12.12.12.31,0,.42l-1.58,1.58,1.58,1.58Z"/></g></svg>