<?xml version="1.0" encoding="UTF-8"?><svg id="Capa_2" xmlns="http://www.w3.org/2000/svg" viewBox="0 0 58.62 57.21"><defs><style>.cls-1{fill:#3587f2;stroke-width:0px;}</style></defs><g id="Capa_1-2"><path class="cls-1" d="M12.04,57.21c-.3,0-.6-.09-.86-.28-.46-.33-.69-.9-.59-1.46l3.39-18.74L.43,23.18c-.4-.4-.54-1-.34-1.54.19-.54.68-.91,1.24-.97l18.43-1.8L28.2.85c.24-.52.76-.85,1.33-.85h.01c.58,0,1.1.35,1.33.87l8.01,18.02,18.42,2.02c.56.06,1.03.43,1.22.96.19.52.07,1.11-.31,1.52l-12.89,13.57,2.94,18.55c.09.56-.15,1.11-.61,1.43-.46.32-1.07.35-1.56.08l-16.57-9.23-16.77,9.24c-.22.12-.47.18-.71.18ZM29.53,44.63c.25,0,.49.06.72.19l14.64,8.16-2.58-16.28c-.07-.45.07-.91.39-1.24l11.35-11.94-16.31-1.79c-.52-.06-.97-.39-1.18-.86l-7.04-15.85-7.43,15.87c-.22.47-.67.79-1.19.84l-16.16,1.58,11.89,11.89c.34.34.49.83.41,1.3l-2.97,16.46,14.78-8.14c.22-.12.47-.18.71-.18ZM20.73,20.26h.01-.01Z"/></g></svg>