<?xml version="1.0" encoding="UTF-8"?><svg id="Capa_2" xmlns="http://www.w3.org/2000/svg" viewBox="0 0 60 60"><defs><style>.cls-1{fill:#c1272d;stroke-width:0px;}</style></defs><g id="Capa_1-2"><path class="cls-1" d="M30,60C13.46,60,0,46.54,0,30S13.46,0,30,0s30,13.46,30,30-13.46,30-30,30ZM30,3.1C15.16,3.1,3.1,15.16,3.1,30s12.07,26.9,26.9,26.9,26.9-12.07,26.9-26.9S44.84,3.1,30,3.1Z"/><path class="cls-1" d="M39.35,40.9c-.4,0-.79-.15-1.09-.45l-18.7-18.7c-.6-.6-.6-1.58,0-2.19s1.58-.6,2.19,0l18.7,18.7c.6.6.6,1.58,0,2.19-.3.3-.7.45-1.09.45Z"/><path class="cls-1" d="M20.65,40.9c-.4,0-.79-.15-1.09-.45-.6-.6-.6-1.58,0-2.19l18.7-18.7c.6-.6,1.58-.6,2.19,0s.6,1.58,0,2.19l-18.7,18.7c-.3.3-.7.45-1.09.45Z"/></g></svg>