<?xml version="1.0" encoding="UTF-8"?><svg id="Capa_2" xmlns="http://www.w3.org/2000/svg" viewBox="0 0 58.62 57.21"><defs><style>.cls-1{fill:#3587f2;stroke-width:0px;}</style></defs><g id="Capa_1-2"><path class="cls-1" d="M58.21,23.39l-12.89,13.58,2.94,18.55c.09.55-.15,1.11-.61,1.44-.46.32-1.07.34-1.56.08l-16.56-9.24-16.77,9.24c-.23.13-.47.18-.71.18-.31,0-.61-.09-.86-.27-.46-.33-.69-.9-.58-1.46l3.39-18.74L.44,23.19c-.41-.41-.55-1-.34-1.54.19-.53.67-.92,1.23-.97l18.43-1.79L28.2.85c.24-.52.76-.85,1.33-.85h.01c.57.01,1.09.36,1.32.88l8.01,18.03,18.43,2.02c.55.06,1.02.43,1.22.95.19.52.06,1.12-.32,1.51Z"/></g></svg>