<?xml version="1.0" encoding="UTF-8"?><svg id="Capa_2" xmlns="http://www.w3.org/2000/svg" viewBox="0 0 14.02 14.02"><defs><style>.cls-1{fill:#3587f2;stroke-width:0px;}</style></defs><g id="Capa_1-2"><path class="cls-1" d="M13.5,9.29h-3.17v-4.57h3.17c.29,0,.52-.23.52-.52s-.23-.52-.52-.52h-3.17V.52c0-.29-.23-.52-.52-.52s-.52.23-.52.52v3.17h-4.57V.52c0-.29-.23-.52-.52-.52s-.52.23-.52.52v3.17H.52c-.29,0-.52.23-.52.52s.23.52.52.52h3.17v4.57H.52c-.29,0-.52.23-.52.52s.23.52.52.52h3.17v3.17c0,.29.23.52.52.52s.52-.23.52-.52v-3.17h4.57v3.17c0,.29.23.52.52.52s.52-.23.52-.52v-3.17h3.17c.29,0,.52-.23.52-.52s-.23-.52-.52-.52ZM4.72,9.29v-4.57h4.57v4.57h-4.57Z"/></g></svg>