<?xml version="1.0" encoding="UTF-8"?><svg id="Capa_2" xmlns="http://www.w3.org/2000/svg" viewBox="0 0 72.37 18.57"><defs><style>.cls-1{opacity:.95;}.cls-2{fill:#000;stroke-width:0px;}</style></defs><g id="Capa_1-2"><g class="cls-1"><path class="cls-2" d="M27.14,8.28c-.21-.37-.48-.71-.78-1.01-.3-.3-.64-.57-1.01-.78-.37-.22-.76-.39-1.18-.5-.42-.12-.86-.18-1.32-.18h-4.98v12.52h2.21v-2.58l3.2-.02,1.13,2.6h2.33l-1.38-3.26.14-.09c.36-.23.69-.5.97-.8.29-.31.54-.65.73-1.01.2-.36.35-.75.46-1.15.11-.4.16-.82.16-1.25,0-.45-.06-.9-.18-1.32-.12-.42-.29-.82-.5-1.19M25.39,11.87c-.15.34-.35.63-.59.88-.25.25-.54.45-.88.59-.34.14-.7.22-1.07.22h-2.77v-5.54h2.77c.38,0,.74.07,1.07.22.33.15.63.35.88.59.25.25.45.54.59.88.14.34.22.7.22,1.08s-.07.74-.22,1.08"/><path class="cls-2" d="M42.67,9.49c0-.5-.1-.98-.29-1.43-.19-.44-.46-.84-.79-1.17-.33-.33-.72-.6-1.17-.79-.44-.19-.92-.29-1.43-.29h-6.26v12.52h6.26c.51,0,.99-.1,1.43-.29.45-.19.84-.46,1.17-.79.33-.33.6-.73.79-1.17.19-.44.29-.92.29-1.43,0-.22-.03-.46-.09-.7-.06-.24-.14-.47-.26-.69-.11-.22-.25-.42-.41-.61-.15-.18-.33-.32-.51-.42l-.29-.16.28-.17c.19-.12.36-.26.52-.44.16-.18.29-.38.41-.6.11-.22.2-.45.26-.69.06-.24.09-.47.09-.69M40.35,15.23c-.08.18-.18.34-.32.47-.13.13-.29.24-.47.31-.18.08-.37.11-.58.11h-4.06v-2.95h4.06c.2,0,.4.04.58.11.18.08.34.18.47.31.13.13.24.29.32.47.07.18.11.37.11.58s-.04.4-.11.58M40.35,10.07c-.08.18-.18.34-.32.48-.13.13-.29.24-.47.31-.18.08-.37.11-.58.11h-4.06v-2.96h4.06c.2,0,.4.04.58.11.18.08.34.18.47.31.13.13.24.29.32.47.07.18.11.37.11.58s-.04.4-.11.58"/><path class="cls-2" d="M53.62,12.05c-.67.29-1.48.29-2.16,0-.34-.15-.63-.35-.88-.59-.25-.25-.45-.55-.59-.88-.14-.34-.22-.7-.22-1.08v-3.68h-2.2v3.68c0,.57.09,1.12.27,1.63.18.51.44.99.77,1.41.33.42.72.79,1.18,1.1.46.3.96.53,1.51.67l.14.04v4h2.2v-4l.14-.04c.55-.14,1.05-.36,1.51-.67.46-.31.85-.68,1.18-1.1.33-.42.59-.9.77-1.41.18-.51.27-1.06.27-1.63v-3.68h-2.2v3.68c0,.38-.07.74-.22,1.08-.14.33-.34.63-.59.88-.25.25-.55.45-.88.59"/><path class="cls-2" d="M72.09,13.22c-.19-.45-.46-.84-.79-1.17-.33-.33-.73-.6-1.17-.79-.45-.19-.93-.29-1.43-.29h-2.58c-.2,0-.4-.04-.58-.11-.18-.07-.33-.18-.47-.31-.13-.13-.24-.29-.32-.47-.08-.18-.11-.38-.11-.58s.04-.4.11-.58c.08-.18.18-.34.31-.47.13-.13.29-.24.47-.31.18-.08.37-.11.58-.11h5.73v-2.2h-5.73c-.5,0-.98.1-1.43.29-.45.19-.84.46-1.17.79-.33.33-.6.73-.79,1.17-.19.44-.29.92-.29,1.43s.1.99.29,1.43c.19.45.46.84.79,1.18.33.33.72.6,1.17.79.44.19.92.29,1.43.29h2.58c.2,0,.4.04.58.11.18.08.34.18.47.31.14.14.24.29.32.47.08.18.11.37.11.58s-.04.4-.11.58c-.07.17-.18.33-.31.47-.13.13-.29.24-.47.31-.18.08-.37.11-.58.11h-5.54v2.2h5.54c.51,0,.99-.1,1.43-.29.45-.19.84-.46,1.17-.79.33-.33.59-.72.79-1.17.19-.44.29-.92.29-1.43s-.1-.99-.29-1.43"/><path class="cls-2" d="M12.08,8.81c-.28-.47-.62-.91-1.01-1.31-.4-.4-.84-.74-1.31-1.01-.48-.28-1-.5-1.55-.65-.55-.15-1.13-.23-1.72-.23s-1.17.08-1.72.23c-.55.16-1.07.37-1.55.65-.48.28-.92.62-1.31,1.01-.4.4-.74.84-1.02,1.31-.28.48-.5,1-.65,1.55-.15.55-.23,1.13-.23,1.72s.08,1.17.23,1.72c.15.55.37,1.07.66,1.55.28.48.62.92,1.02,1.32.39.39.84.74,1.32,1.02.48.28,1,.5,1.55.66,1.1.31,2.33.31,3.44,0,.55-.15,1.07-.37,1.55-.65.48-.28.92-.62,1.31-1.02.4-.4.74-.84,1.01-1.32.28-.48.5-1,.65-1.55.15-.55.23-1.13.23-1.72s-.08-1.17-.23-1.72c-.15-.55-.37-1.07-.65-1.55M10.44,13.74c-.22.51-.53.97-.92,1.36-.38.39-.84.7-1.36.92-.52.23-1.08.34-1.67.34s-1.16-.11-1.68-.34c-.52-.22-.98-.53-1.36-.92-.39-.39-.7-.85-.92-1.36-.22-.52-.34-1.08-.34-1.66s.11-1.15.34-1.67c.22-.52.53-.98.92-1.36.39-.39.85-.69,1.36-.92,1.03-.45,2.29-.45,3.35,0,.52.22.98.53,1.36.92.39.39.69.84.92,1.36.22.52.34,1.08.34,1.67s-.11,1.15-.34,1.66"/><path class="cls-2" d="M6.48,3.41c.94,0,1.7-.76,1.7-1.7s-.76-1.7-1.7-1.7-1.7.76-1.7,1.7.76,1.7,1.7,1.7"/></g></g></svg>