<?xml version="1.0" encoding="UTF-8"?><svg id="Capa_2" xmlns="http://www.w3.org/2000/svg" viewBox="0 0 14.27 13.95"><defs><style>.cls-1{fill:#3587f2;stroke-width:0px;}</style></defs><g id="Capa_1-2"><path class="cls-1" d="M6.13,1h7.73c.22,0,.4-.18.4-.4s-.18-.4-.4-.4h-7.73c-.22,0-.4.18-.4.4s.18.4.4.4Z"/><path class="cls-1" d="M13.86,4.31h-7.73c-.22,0-.4.18-.4.4s.18.4.4.4h7.73c.22,0,.4-.18.4-.4s-.18-.4-.4-.4Z"/><path class="cls-1" d="M13.86,9.11h-7.73c-.22,0-.4.18-.4.4s.18.4.4.4h7.73c.22,0,.4-.18.4-.4s-.18-.4-.4-.4Z"/><path class="cls-1" d="M13.86,13.14h-7.73c-.22,0-.4.18-.4.4s.18.4.4.4h7.73c.22,0,.4-.18.4-.4s-.18-.4-.4-.4Z"/><path class="cls-1" d="M3.03,5.12c.22,0,.4-.18.4-.4s-.18-.4-.4-.4h-.89V.4c0-.16-.1-.31-.25-.37-.15-.06-.32-.03-.44.09L.12,1.44c-.16.16-.16.41,0,.57s.41.16.57,0l.63-.63v2.93H.43c-.22,0-.4.18-.4.4s.18.4.4.4h2.6Z"/><path class="cls-1" d="M3.21,13.14H1.05v-.56l1.98-1.1c.13-.07.21-.21.21-.35v-1.61c0-.22-.18-.4-.4-.4H.58c-.22,0-.4.18-.4.4s.18.4.4.4h1.85v.97l-1.98,1.1c-.13.07-.21.21-.21.35v1.2c0,.22.18.4.4.4h2.57c.22,0,.4-.18.4-.4s-.18-.4-.4-.4Z"/></g></svg>