<?xml version="1.0" encoding="UTF-8"?><svg id="Capa_2" xmlns="http://www.w3.org/2000/svg" viewBox="0 0 18.04 16.52"><defs><style>.cls-1{fill:#3587f2;stroke-width:0px;}</style></defs><g id="Capa_1-2"><path class="cls-1" d="M18.02,4.5c-.04-.1-.14-.19-.25-.2l-3.82-.41L12.32.17c-.04-.11-.15-.17-.27-.17h0c-.12,0-.22.07-.27.17l-1.74,3.72-1.08.11-.93-2.11c-.06-.13-.21-.22-.35-.22h0c-.14,0-.29.09-.35.22l-1.11,2.37-.21.45-.87,1.86-4.78.47c-.15,0-.27.11-.31.25-.06.14-.02.3.08.4l3.51,3.51-.88,4.86c-.02.14.03.29.16.38.07.05.14.07.22.07.06,0,.13-.02.18-.05l4.35-2.4,4.3,2.4c.12.07.29.06.4-.02.12-.08.17-.22.16-.38l-.76-4.81.97-1.02,2.73,1.52c.11.06.22.04.32-.02.09-.06.14-.18.12-.3l-.6-3.82,2.65-2.79c.08-.09.11-.21.07-.32ZM12.04,9.85l-.97,1.02c-.08.08-.12.21-.11.32l.68,4.22-3.8-2.11c-.06-.03-.12-.05-.19-.05-.06,0-.12.02-.18.05l-3.83,2.11.77-4.27c.02-.13-.02-.25-.11-.34l-3.09-3.09,4.2-.4c.13,0,.25-.1.31-.22l.84-1.78.53-1.13.56-1.21.49,1.11,1.33,3.01c.07.12.18.2.31.22l4.24.46-1.98,2.08Z"/><polygon class="cls-1" points="15.1 13.16 14.32 13.45 14.03 14.24 13.73 13.45 12.94 13.16 13.73 12.87 14.03 12.08 14.32 12.87 15.1 13.16"/></g></svg>