<?xml version="1.0" encoding="UTF-8"?><svg id="Capa_2" xmlns="http://www.w3.org/2000/svg" viewBox="0 0 60 60"><defs><style>.cls-1{fill:#39b54a;stroke-width:0px;}</style></defs><g id="Capa_1-2"><path class="cls-1" d="M30,0C13.46,0,0,13.46,0,30s13.46,30,30,30,30-13.46,30-30S46.54,0,30,0ZM30,56.9c-14.83,0-26.9-12.07-26.9-26.9S15.16,3.1,30,3.1s26.9,12.07,26.9,26.9-12.07,26.9-26.9,26.9Z"/><path class="cls-1" d="M42.02,20.71l-15.29,15.29-8.74-8.74c-.6-.6-1.58-.6-2.19,0s-.6,1.58,0,2.19l9.84,9.84c.29.29.68.45,1.09.45s.8-.16,1.09-.45l16.39-16.39c.6-.6.6-1.58,0-2.19s-1.58-.6-2.19,0Z"/></g></svg>