<?xml version="1.0" encoding="UTF-8"?><svg id="Capa_2" xmlns="http://www.w3.org/2000/svg" viewBox="0 0 60.71 60"><defs><style>.cls-1{fill:#c1272d;stroke-width:0px;}</style></defs><g id="Capa_1-2"><path class="cls-1" d="M30.75,6.33C15.95,6.33,3.91,18.37,3.91,33.17s12.04,26.83,26.84,26.83,26.83-12.04,26.83-26.83S45.55,6.33,30.75,6.33ZM30.75,56.84c-13.06,0-23.68-10.62-23.68-23.68S17.69,9.49,30.75,9.49s23.68,10.62,23.68,23.68-10.62,23.68-23.68,23.68Z"/><path class="cls-1" d="M60.13,10.43L47.84.36c-.68-.55-1.67-.45-2.22.22-.55.67-.46,1.67.22,2.22l12.29,10.07c.29.24.65.36,1,.36.46,0,.91-.2,1.22-.58.55-.67.45-1.67-.22-2.22Z"/><path class="cls-1" d="M15.09.58c-.55-.67-1.55-.78-2.22-.22L.58,10.43c-.68.55-.77,1.55-.22,2.22.31.38.77.58,1.22.58.35,0,.71-.12,1-.36L14.87,2.8c.68-.55.77-1.55.22-2.22Z"/><path class="cls-1" d="M39.02,25.75c-.62-.62-1.62-.62-2.23,0l-6.03,6.03-6.03-6.03c-.62-.62-1.62-.62-2.23,0s-.62,1.62,0,2.23l6.03,6.03-6.03,6.03c-.62.62-.62,1.62,0,2.23.62.62,1.62.62,2.23,0l6.03-6.03,6.03,6.03c.62.62,1.62.62,2.23,0s.62-1.62,0-2.23l-6.03-6.03,6.03-6.03c.62-.62.62-1.62,0-2.23Z"/></g></svg>