<?xml version="1.0" encoding="UTF-8"?><svg id="Capa_2" xmlns="http://www.w3.org/2000/svg" viewBox="0 0 137.17 35.34"><defs><style>.cls-1{fill:#fff;stroke-width:0px;}</style></defs><g id="Capa_1-2"><polygon class="cls-1" points="18.98 24.99 8.59 .58 0 .58 14.79 34.76 22.6 34.76 37.39 .58 29.53 .58 18.98 24.99"/><path class="cls-1" d="M69.76,4.98c-1.69-1.59-3.67-2.82-5.93-3.69-2.26-.86-4.74-1.29-7.45-1.29s-5.18.44-7.45,1.32c-2.26.88-4.24,2.12-5.93,3.71-1.69,1.6-3,3.46-3.93,5.59-.93,2.13-1.39,4.48-1.39,7.05s.47,4.88,1.39,7.03c.93,2.15,2.24,4.02,3.93,5.61,1.69,1.6,3.68,2.83,5.96,3.71,2.28.88,4.77,1.32,7.47,1.32s5.13-.43,7.4-1.29c2.26-.86,4.24-2.09,5.93-3.69,1.69-1.59,3-3.47,3.93-5.64.92-2.16,1.39-4.51,1.39-7.05s-.47-4.93-1.39-7.08c-.93-2.15-2.24-4.02-3.93-5.61ZM66.27,22.09c-.54,1.32-1.29,2.47-2.27,3.46-.98.99-2.11,1.76-3.39,2.29-1.29.54-2.69.81-4.22.81s-2.95-.27-4.25-.81c-1.3-.54-2.43-1.3-3.39-2.29-.96-.99-1.71-2.15-2.25-3.46-.54-1.32-.8-2.79-.8-4.42s.27-3.1.8-4.42c.54-1.32,1.29-2.47,2.25-3.46s2.09-1.76,3.39-2.29c1.3-.54,2.72-.8,4.25-.8s2.94.27,4.22.8c1.29.54,2.42,1.3,3.39,2.29.97.99,1.73,2.15,2.27,3.46.54,1.32.8,2.79.8,4.42s-.27,3.1-.8,4.42Z"/><polygon class="cls-1" points="76.69 7.03 87.62 7.03 87.62 34.76 95.53 34.76 95.53 7.03 106.47 7.03 106.47 .58 76.69 .58 76.69 7.03"/><polygon class="cls-1" points="118.57 28.41 118.57 20.5 134.44 20.5 134.44 14.3 118.57 14.3 118.57 6.93 136.53 6.93 136.53 .58 110.71 .58 110.71 34.76 137.17 34.76 137.17 28.41 118.57 28.41"/></g></svg>